<svg width="22" height="23" viewBox="0 0 22 23" fill="none" xmlns="http://www.w3.org/2000/svg">
<path fill-rule="evenodd" clip-rule="evenodd" d="M6.46494 1.04903C7.63828 0.995252 8.01228 0.983032 11 0.983032C13.9883 0.983032 14.3617 0.995862 15.5344 1.04903C16.7059 1.1022 17.5059 1.28859 18.2056 1.56053C18.9395 1.83684 19.6043 2.26977 20.1538 2.8292C20.7133 3.37863 21.1463 4.04349 21.4225 4.77742C21.6944 5.47714 21.8802 6.27709 21.934 7.44797C21.9878 8.62131 22 8.99531 22 11.983C22 14.9707 21.9872 15.3447 21.934 16.5181C21.8808 17.6889 21.6944 18.4889 21.4225 19.1886C21.1414 19.9116 20.7649 20.5257 20.1538 21.1368C19.6044 21.6963 18.9395 22.1293 18.2056 22.4055C17.5059 22.6774 16.7059 22.8632 15.5351 22.917C14.3617 22.9708 13.9877 22.983 11 22.983C8.01228 22.983 7.63828 22.9702 6.46494 22.917C5.29406 22.8638 4.49411 22.6774 3.79439 22.4055C3.07144 22.1244 2.45728 21.7479 1.84617 21.1368C1.28664 20.5874 0.85368 19.9225 0.5775 19.1886C0.30556 18.4889 0.11978 17.6889 0.066 16.5181C0.01222 15.3447 0 14.9713 0 11.983C0 8.9947 0.01283 8.62131 0.066 7.44859C0.11917 6.27709 0.30556 5.47714 0.5775 4.77742C0.85381 4.04354 1.28674 3.37871 1.84617 2.8292C2.39559 2.26967 3.06045 1.83671 3.79439 1.56053C4.49411 1.28859 5.29406 1.10281 6.46494 1.04903ZM15.4452 3.02903C14.2853 2.97647 13.937 2.96486 11 2.96486C8.063 2.96486 7.71467 2.97647 6.55478 3.02903C5.48228 3.07792 4.89989 3.25697 4.51244 3.40792C3.99911 3.60714 3.63244 3.84547 3.24744 4.23047C2.86306 4.61547 2.62411 4.98214 2.42489 5.49547C2.27394 5.88292 2.09489 6.46531 2.046 7.53781C1.99344 8.6977 1.98183 9.04603 1.98183 11.983C1.98183 14.92 1.99344 15.2683 2.046 16.4282C2.09489 17.5007 2.27394 18.0831 2.42489 18.4706C2.60111 18.9484 2.88219 19.3806 3.24744 19.7356C3.60234 20.1008 4.03461 20.3819 4.51244 20.5581C4.89989 20.7091 5.48228 20.8881 6.55478 20.937C7.71467 20.9896 8.06239 21.0012 11 21.0012C13.9376 21.0012 14.2853 20.9896 15.4452 20.937C16.5177 20.8881 17.1001 20.7091 17.4876 20.5581C18.0009 20.3589 18.3676 20.1206 18.7526 19.7356C19.1178 19.3807 19.3989 18.9484 19.5751 18.4706C19.7261 18.0831 19.9051 17.5007 19.954 16.4282C20.0066 15.2683 20.0182 14.92 20.0182 11.983C20.0182 9.04603 20.0066 8.6977 19.954 7.53781C19.9051 6.46531 19.7261 5.88292 19.5751 5.49547C19.3759 4.98214 19.1376 4.61547 18.7526 4.23047C18.3676 3.84609 18.0009 3.60714 17.4876 3.40792C17.1001 3.25697 16.5177 3.07792 15.4452 3.02903ZM9.5955 15.3739C10.0408 15.5584 10.518 15.6533 11 15.6533C11.9735 15.6533 12.907 15.2666 13.5953 14.5783C14.2837 13.89 14.6704 12.9564 14.6704 11.983C14.6704 11.0096 14.2837 10.076 13.5953 9.38771C12.907 8.69939 11.9735 8.31269 11 8.31269C10.518 8.31269 10.0408 8.40763 9.5955 8.59208C9.1501 8.77653 8.74553 9.04688 8.40471 9.38771C8.06389 9.72853 7.79353 10.1331 7.60908 10.5784C7.42463 11.0237 7.3297 11.501 7.3297 11.983C7.3297 12.465 7.42463 12.9423 7.60908 13.3876C7.79353 13.8329 8.06389 14.2375 8.40471 14.5783C8.74553 14.9191 9.1501 15.1895 9.5955 15.3739ZM7.00205 7.98504C8.06238 6.92471 9.5005 6.32902 11 6.32902C12.4996 6.32902 13.9377 6.92471 14.998 7.98504C16.0583 9.04537 16.654 10.4835 16.654 11.983C16.654 13.4825 16.0583 14.9206 14.998 15.981C13.9377 17.0413 12.4996 17.637 11 17.637C9.5005 17.637 8.06238 17.0413 7.00205 15.981C5.94172 14.9206 5.34603 13.4825 5.34603 11.983C5.34603 10.4835 5.94172 9.04537 7.00205 7.98504ZM17.9077 7.17141C18.1583 6.92076 18.2991 6.58082 18.2991 6.22636C18.2991 5.87189 18.1583 5.53195 17.9077 5.28131C17.657 5.03067 17.3171 4.88986 16.9626 4.88986C16.6082 4.88986 16.2682 5.03067 16.0176 5.28131C15.7669 5.53195 15.6261 5.87189 15.6261 6.22636C15.6261 6.58082 15.7669 6.92076 16.0176 7.17141C16.2682 7.42205 16.6082 7.56286 16.9626 7.56286C17.3171 7.56286 17.657 7.42205 17.9077 7.17141Z" fill="black"/>
</svg>
