<svg width="19" height="18" viewBox="0 0 19 18" fill="none" xmlns="http://www.w3.org/2000/svg">
<g clip-path="url(#clip0_424_41)">
<path d="M9.18994 1.6215C11.5929 1.6215 11.8779 1.6305 12.8267 1.674C13.8077 1.719 14.8179 1.9425 15.5327 2.65725C16.2542 3.37875 16.4709 4.37925 16.5159 5.36325C16.5594 6.312 16.5684 6.597 16.5684 9C16.5684 11.403 16.5594 11.688 16.5159 12.6368C16.4717 13.6125 16.2429 14.6325 15.5327 15.3428C14.8112 16.0643 13.8114 16.281 12.8267 16.326C11.8779 16.3695 11.5929 16.3785 9.18994 16.3785C6.78694 16.3785 6.50194 16.3695 5.55319 16.326C4.58494 16.2817 3.55144 16.0478 2.84719 15.3428C2.12944 14.625 1.90894 13.6148 1.86394 12.6368C1.82044 11.688 1.81144 11.403 1.81144 9C1.81144 6.597 1.82044 6.312 1.86394 5.36325C1.90819 4.39125 2.13919 3.36525 2.84719 2.65725C3.56719 1.93725 4.57144 1.719 5.55319 1.674C6.50194 1.6305 6.78694 1.6215 9.18994 1.6215ZM9.18994 0C6.74569 0 6.43894 0.0105 5.47894 0.054C4.08769 0.11775 2.70619 0.50475 1.70044 1.5105C0.690941 2.52 0.307691 3.8985 0.243941 5.289C0.200441 6.249 0.189941 6.55575 0.189941 9C0.189941 11.4443 0.200441 11.751 0.243941 12.711C0.307691 14.1007 0.696191 15.486 1.70044 16.4895C2.70919 17.4983 4.08994 17.8822 5.47894 17.946C6.43894 17.9895 6.74569 18 9.18994 18C11.6342 18 11.9409 17.9895 12.9009 17.946C14.2914 17.8822 15.6744 17.4945 16.6794 16.4895C17.6897 15.4792 18.0722 14.1015 18.1359 12.711C18.1794 11.751 18.1899 11.4443 18.1899 9C18.1899 6.55575 18.1794 6.249 18.1359 5.289C18.0722 3.89775 17.6844 2.5155 16.6794 1.5105C15.6722 0.50325 14.2877 0.117 12.9009 0.054C11.9409 0.0105 11.6342 0 9.18994 0Z" fill="black"/>
<path d="M9.18986 4.37866C6.63761 4.37866 4.56836 6.44791 4.56836 9.00016C4.56836 11.5524 6.63761 13.6217 9.18986 13.6217C11.7421 13.6217 13.8114 11.5524 13.8114 9.00016C13.8114 6.44791 11.7421 4.37866 9.18986 4.37866ZM9.18986 12.0002C7.53311 12.0002 6.18986 10.6569 6.18986 9.00016C6.18986 7.34341 7.53311 6.00016 9.18986 6.00016C10.8466 6.00016 12.1899 7.34341 12.1899 9.00016C12.1899 10.6569 10.8466 12.0002 9.18986 12.0002Z" fill="black"/>
<path d="M13.9944 5.27548C14.5909 5.27548 15.0744 4.79195 15.0744 4.19548C15.0744 3.59901 14.5909 3.11548 13.9944 3.11548C13.398 3.11548 12.9144 3.59901 12.9144 4.19548C12.9144 4.79195 13.398 5.27548 13.9944 5.27548Z" fill="black"/>
</g>
<defs>
<clipPath id="clip0_424_41">
<rect width="18" height="18" fill="white" transform="translate(0.189941)"/>
</clipPath>
</defs>
</svg>
