<svg width="18" height="20" viewBox="0 0 18 20" fill="none" xmlns="http://www.w3.org/2000/svg">
<g clip-path="url(#clip0_424_53)">
<path d="M14.6085 15.8941H12.1027V11.97C12.1027 11.0341 12.086 9.82998 10.7993 9.82998C9.49434 9.82998 9.29434 10.8491 9.29434 11.9025V15.8941H6.78934V7.82414H9.19517V8.92664H9.22851C9.71934 8.08831 10.631 7.58748 11.6018 7.62331C14.1418 7.62331 14.6093 9.29414 14.6093 11.4666L14.6085 15.8941ZM3.96184 6.72081C3.15851 6.72081 2.50767 6.06998 2.50767 5.26664C2.50767 4.46331 3.15851 3.81248 3.96184 3.81248C4.76517 3.81248 5.41601 4.46331 5.41601 5.26664C5.41601 6.06998 4.76517 6.72081 3.96184 6.72081ZM5.21434 15.8941H2.70601V7.82414H5.21434V15.8941ZM15.8577 1.48581H1.44684C0.766007 1.47831 0.207674 2.02414 0.199341 2.70498V17.175C0.207674 17.8566 0.766007 18.4025 1.44684 18.395H15.8577C16.5402 18.4033 17.101 17.8575 17.1102 17.175V2.70414C17.1002 2.02164 16.5393 1.47581 15.8577 1.48498" fill="black"/>
</g>
<defs>
<clipPath id="clip0_424_53">
<rect width="17" height="20" fill="white" transform="translate(0.199341)"/>
</clipPath>
</defs>
</svg>
