<svg width="22" height="22" viewBox="0 0 22 22" fill="none" xmlns="http://www.w3.org/2000/svg">
<path fill-rule="evenodd" clip-rule="evenodd" d="M14.1074 12.1081C13.7355 12.1081 13.0196 13.4871 12.5897 13.4871C12.4777 13.4824 12.369 13.4482 12.2748 13.3879C11.4729 12.9891 10.771 12.5774 10.1122 11.9524C9.56726 11.4405 8.96637 10.6726 8.65243 10.005C8.6091 9.94172 8.58387 9.86801 8.57944 9.79167C8.57944 9.46429 9.56926 8.85417 9.56926 8.31349C9.56926 8.17163 8.83939 6.24008 8.73741 5.99702C8.59444 5.62798 8.52345 5.51389 8.13752 5.51389C7.95055 5.51389 7.77759 5.47123 7.60762 5.47123C7.30567 5.47123 7.07771 5.58532 6.86175 5.78373C6.17388 6.42361 5.82994 7.09127 5.80195 8.02976V8.14286C5.78695 9.125 6.27386 10.1042 6.81876 10.9008C8.04854 12.7063 9.32431 14.2837 11.3719 15.2063C11.9878 15.4911 13.4066 16.0873 14.0934 16.0873C14.9103 16.0873 16.243 15.5764 16.571 14.7798C16.701 14.4524 16.8149 14.0556 16.8149 13.7004C16.8149 13.6429 16.8149 13.5575 16.7849 13.4871C16.685 13.3165 14.3514 12.1081 14.1074 12.1081ZM11.2 19.6409C9.45328 19.6409 7.7206 19.1151 6.25886 18.1627L2.79249 19.256L3.92429 15.9454C2.80777 14.4265 2.20566 12.5953 2.2046 10.7153C2.2046 5.7996 6.24387 1.79167 11.2 1.79167C16.1561 1.79167 20.1963 5.79861 20.1963 10.7143C20.1963 15.6329 16.1571 19.6409 11.2 19.6409ZM11.2 0C5.24105 0 0.401927 4.80357 0.401927 10.7143C0.401927 12.6627 0.93183 14.5814 1.94765 16.244L0 22L5.97291 20.0952C7.61755 20.9961 9.47048 21.456 11.3489 21.4294C13.2273 21.4029 15.0663 20.8908 16.6844 19.9438C18.3025 18.9968 19.6438 17.6476 20.5759 16.0292C21.5081 14.4109 21.9989 12.5793 22 10.7153C22 4.80456 17.1589 0 11.2 0Z" fill="#F3E902"/>
</svg>
