<svg width="16" height="23" viewBox="0 0 16 23" fill="none" xmlns="http://www.w3.org/2000/svg">
<path d="M7.90898 22.0833C5.96565 22.0833 4.37982 21.7762 3.15148 21.1621C1.92315 20.5479 1.30898 19.755 1.30898 18.7833C1.30898 18.3433 1.4419 17.9354 1.70773 17.5596C1.97357 17.1837 2.34482 16.8583 2.82148 16.5833L4.55398 18.2058C4.38898 18.2791 4.21023 18.3616 4.01773 18.4533C3.82523 18.545 3.67398 18.655 3.56398 18.7833C3.80232 19.0766 4.35232 19.3333 5.21398 19.5533C6.07565 19.7733 6.97398 19.8833 7.90898 19.8833C8.84398 19.8833 9.7469 19.7733 10.6177 19.5533C11.4886 19.3333 12.0432 19.0766 12.2815 18.7833C12.1532 18.6366 11.9882 18.5175 11.7865 18.4258C11.5848 18.3341 11.3923 18.2516 11.209 18.1783L12.914 16.5283C13.4273 16.8216 13.8215 17.1562 14.0965 17.5321C14.3715 17.9079 14.509 18.325 14.509 18.7833C14.509 19.755 13.8948 20.5479 12.6665 21.1621C11.4382 21.7762 9.85232 22.0833 7.90898 22.0833ZM7.93648 16.0333C9.75148 14.695 11.1173 13.3521 12.034 12.0046C12.9507 10.6571 13.409 9.30498 13.409 7.94831C13.409 6.07831 12.8132 4.66665 11.6215 3.71331C10.4298 2.75998 9.19232 2.28331 7.90898 2.28331C6.62565 2.28331 5.38815 2.75998 4.19648 3.71331C3.00482 4.66665 2.40898 6.07831 2.40898 7.94831C2.40898 9.17665 2.85815 10.4554 3.75648 11.7846C4.65482 13.1137 6.04815 14.53 7.93648 16.0333ZM7.90898 18.7833C5.32398 16.8766 3.3944 15.025 2.12023 13.2283C0.846068 11.4316 0.208984 9.67165 0.208984 7.94831C0.208984 6.64665 0.442734 5.5054 0.910234 4.52456C1.37773 3.54373 1.97815 2.72331 2.71148 2.06331C3.44482 1.40331 4.26982 0.908313 5.18648 0.578313C6.10315 0.248313 7.01065 0.083313 7.90898 0.083313C8.80732 0.083313 9.71482 0.248313 10.6315 0.578313C11.5482 0.908313 12.3732 1.40331 13.1065 2.06331C13.8398 2.72331 14.4402 3.54373 14.9077 4.52456C15.3752 5.5054 15.609 6.64665 15.609 7.94831C15.609 9.67165 14.9719 11.4316 13.6977 13.2283C12.4236 15.025 10.494 16.8766 7.90898 18.7833ZM7.90898 9.98331C8.51398 9.98331 9.0319 9.7679 9.46273 9.33706C9.89357 8.90623 10.109 8.38831 10.109 7.78331C10.109 7.17831 9.89357 6.6604 9.46273 6.22956C9.0319 5.79873 8.51398 5.58331 7.90898 5.58331C7.30398 5.58331 6.78607 5.79873 6.35523 6.22956C5.9244 6.6604 5.70898 7.17831 5.70898 7.78331C5.70898 8.38831 5.9244 8.90623 6.35523 9.33706C6.78607 9.7679 7.30398 9.98331 7.90898 9.98331Z" fill="black"/>
</svg>
