<svg width="24" height="23" viewBox="0 0 24 23" fill="none" xmlns="http://www.w3.org/2000/svg">
<g clip-path="url(#clip0_424_48)">
<path d="M19.6605 4.18799C18.1942 3.51524 16.6226 3.01979 14.979 2.73612C14.9493 2.73037 14.9196 2.74474 14.9033 2.77158C14.7011 3.13095 14.4769 3.60054 14.3206 3.96854C12.5525 3.70404 10.794 3.70404 9.06227 3.96854C8.90607 3.59191 8.67319 3.13095 8.47098 2.77158C8.45469 2.74474 8.42498 2.73133 8.39528 2.73612C6.75269 3.01883 5.18103 3.51429 3.71382 4.18799C3.70136 4.19279 3.68986 4.20237 3.68315 4.21387C0.701775 8.6682 -0.115683 13.0133 0.2849 17.3047C0.286817 17.3258 0.298317 17.3459 0.314608 17.3584C2.28207 18.8035 4.18723 19.6804 6.0579 20.2612C6.08761 20.2707 6.11923 20.2592 6.1384 20.2343C6.58115 19.6306 6.97503 18.9933 7.31332 18.3234C7.33344 18.2841 7.31427 18.2372 7.27307 18.2218C6.64727 17.9842 6.05215 17.6947 5.47907 17.367C5.43402 17.3402 5.43019 17.276 5.4714 17.2443C5.59215 17.1542 5.7129 17.0603 5.8279 16.9655C5.84898 16.9482 5.87773 16.9444 5.90265 16.9559C9.66698 18.6742 13.7418 18.6742 17.4611 16.9559C17.486 16.9444 17.5148 16.9472 17.5368 16.9655C17.6518 17.0603 17.7726 17.1552 17.8943 17.2453C17.9364 17.276 17.9336 17.3411 17.8876 17.368C17.3145 17.7024 16.7194 17.9861 16.0926 18.2218C16.0514 18.2372 16.0342 18.2851 16.0533 18.3244C16.3983 18.9933 16.7931 19.6306 17.2273 20.2343C17.2455 20.2602 17.2781 20.2707 17.3078 20.2621C19.1871 19.6804 21.0932 18.8035 23.0597 17.3593C23.0769 17.3469 23.0875 17.3277 23.0894 17.3066C23.5686 12.3453 22.2863 8.0357 19.6892 4.21579C19.6844 4.20237 19.6729 4.19279 19.6605 4.18799ZM7.87586 14.6923C6.74215 14.6923 5.80873 13.6515 5.80873 12.3741C5.80873 11.0966 6.72394 10.0559 7.87586 10.0559C9.0364 10.0559 9.96119 11.1052 9.94298 12.3741C9.94298 13.6525 9.02682 14.6923 7.87586 14.6923ZM15.5186 14.6923C14.3858 14.6923 13.4514 13.6515 13.4514 12.3741C13.4514 11.0966 14.3666 10.0559 15.5186 10.0559C16.6791 10.0559 17.6039 11.1052 17.5857 12.3741C17.5857 13.6525 16.6791 14.6923 15.5186 14.6923Z" fill="black"/>
</g>
<defs>
<clipPath id="clip0_424_48">
<rect width="23" height="23" fill="white" transform="translate(0.190063)"/>
</clipPath>
</defs>
</svg>
