<svg width="18" height="17" viewBox="0 0 18 17" fill="none" xmlns="http://www.w3.org/2000/svg">
<path d="M12.893 10.1878C12.68 10.0799 11.6424 9.57366 11.4485 9.50141C11.2546 9.43234 11.1138 9.39622 10.9725 9.60925C10.8344 9.81697 10.4275 10.2924 10.3032 10.4311C10.1788 10.5697 10.0567 10.5804 9.84681 10.4863C9.63378 10.3785 8.95325 10.157 8.14522 9.43234C7.51409 8.87081 7.09387 8.17912 6.96903 7.96609C6.84472 7.75572 6.95522 7.63672 7.06041 7.53153C7.15709 7.43484 7.27344 7.28822 7.38128 7.16072C7.48381 7.03322 7.51675 6.94769 7.59166 6.80956C7.66072 6.66028 7.62512 6.54394 7.57253 6.43875C7.51994 6.33356 7.09653 5.29072 6.91962 4.87528C6.75069 4.46303 6.57378 4.51562 6.44362 4.51562C6.32197 4.50447 6.18066 4.50447 6.03988 4.50447C5.89909 4.50447 5.66906 4.55706 5.47516 4.75894C5.28125 4.97197 4.73353 5.48091 4.73353 6.51047C4.73353 7.54269 5.49162 8.54144 5.59681 8.69072C5.70466 8.82884 7.08803 10.9538 9.21037 11.8671C9.71666 12.0801 10.1098 12.2076 10.4168 12.3128C10.9231 12.4732 11.3853 12.4509 11.7503 12.3983C12.154 12.3319 13.0008 11.8862 13.1783 11.3884C13.3584 10.8874 13.3584 10.4725 13.3058 10.3785C13.2532 10.2818 13.1151 10.2292 12.902 10.1352L12.893 10.1878ZM9.04409 15.4062H9.03294C7.77653 15.4062 6.53447 15.0657 5.44966 14.4293L5.19519 14.2773L2.53894 14.969L3.25294 12.3845L3.08134 12.1189C2.38116 11.0038 2.00769 9.71709 2.00769 8.39481C2.00769 4.53794 5.16491 1.39187 9.04941 1.39187C10.9311 1.39187 12.6964 2.125 14.0246 3.45312C15.3527 4.77009 16.0858 6.53544 16.0858 8.40597C16.0805 12.2602 12.9259 15.4062 9.04675 15.4062H9.04409ZM15.0345 2.44322C13.4184 0.882406 11.2934 0 9.03294 0C4.37069 0 0.574375 3.77984 0.571719 8.42509C0.571719 9.90834 0.959 11.3555 1.70062 12.6363L0.5 17L4.988 15.8297C6.22475 16.4964 7.61662 16.8534 9.03347 16.856H9.03613C13.701 16.856 17.4973 13.0762 17.5 8.42775C17.5 6.17844 16.6229 4.06141 15.0238 2.47031L15.0345 2.44322Z" fill="black"/>
</svg>
