<svg width="60" height="60" viewBox="0 0 60 60" fill="none" xmlns="http://www.w3.org/2000/svg">
<rect width="60" height="60" rx="30" fill="#F3E902"/>
<mask id="mask0_253_453" style="mask-type:alpha" maskUnits="userSpaceOnUse" x="10" y="10" width="40" height="40">
<rect x="10" y="10" width="40" height="40" fill="#D9D9D9"/>
</mask>
<g mask="url(#mask0_253_453)">
<path d="M28.2736 45.5085V41.8644C26.6963 41.5254 25.3347 40.8757 24.1888 39.9153C23.043 38.9548 22.2022 37.5989 21.6665 35.8475L24.9701 34.5763C25.4165 35.9322 26.0787 36.9633 26.9567 37.6695C27.8347 38.3757 28.9879 38.7288 30.4165 38.7288C31.6367 38.7288 32.671 38.4675 33.5192 37.9449C34.3674 37.4223 34.7915 36.6102 34.7915 35.5085C34.7915 34.5198 34.4641 33.7359 33.8094 33.1568C33.1546 32.5777 31.6367 31.9209 29.2558 31.1864C26.6963 30.4237 24.9403 29.5127 23.9879 28.4534C23.0356 27.3941 22.5594 26.1017 22.5594 24.5763C22.5594 22.7401 23.1844 21.3136 24.4344 20.2966C25.6844 19.2797 26.9641 18.7006 28.2736 18.5593V15H31.8451V18.5593C33.3332 18.7853 34.5609 19.3008 35.5281 20.1059C36.4954 20.911 37.2022 21.8927 37.6486 23.0508L34.3451 24.4068C33.9879 23.5028 33.482 22.8249 32.8272 22.3729C32.1725 21.9209 31.2796 21.6949 30.1486 21.6949C28.8391 21.6949 27.8421 21.9703 27.1576 22.5212C26.4731 23.072 26.1308 23.7571 26.1308 24.5763C26.1308 25.5085 26.5772 26.2429 27.4701 26.7797C28.3629 27.3164 29.9106 27.8814 32.1129 28.4746C34.1665 29.0395 35.7216 29.9364 36.7781 31.1653C37.8347 32.3941 38.3629 33.8136 38.3629 35.4237C38.3629 37.4294 37.7379 38.9548 36.4879 40C35.2379 41.0452 33.6903 41.6949 31.8451 41.9492V45.5085H28.2736Z" fill="#1C1B1F"/>
</g>
</svg>
