<svg xmlns="http://www.w3.org/2000/svg" xmlns:xlink="http://www.w3.org/1999/xlink" width="160" zoomAndPan="magnify" viewBox="0 0 120 30.000001" height="40" preserveAspectRatio="xMidYMid meet" version="1.2"><defs/><g id="1c30d17da2"><g style="fill:#ffffff;fill-opacity:1;"><g transform="translate(1.935482, 21.167158)"><path style="stroke:none" d="M 2.171875 0 L 2.171875 -15.453125 L 6.953125 -15.453125 C 7.554688 -15.453125 8.148438 -15.378906 8.734375 -15.234375 C 9.316406 -15.097656 9.847656 -14.875 10.328125 -14.5625 C 10.804688 -14.257812 11.1875 -13.851562 11.46875 -13.34375 C 11.757812 -12.832031 11.90625 -12.210938 11.90625 -11.484375 C 11.90625 -10.953125 11.816406 -10.476562 11.640625 -10.0625 C 11.472656 -9.644531 11.25 -9.28125 10.96875 -8.96875 C 10.6875 -8.664062 10.375 -8.414062 10.03125 -8.21875 C 10.53125 -8.007812 10.976562 -7.710938 11.375 -7.328125 C 11.78125 -6.953125 12.09375 -6.507812 12.3125 -6 C 12.539062 -5.488281 12.65625 -4.914062 12.65625 -4.28125 C 12.65625 -3.539062 12.515625 -2.898438 12.234375 -2.359375 C 11.960938 -1.816406 11.59375 -1.367188 11.125 -1.015625 C 10.65625 -0.671875 10.125 -0.414062 9.53125 -0.25 C 8.9375 -0.0820312 8.320312 0 7.6875 0 Z M 4.375 -8.921875 L 7.078125 -8.921875 C 7.554688 -8.921875 7.992188 -8.992188 8.390625 -9.140625 C 8.796875 -9.296875 9.125 -9.546875 9.375 -9.890625 C 9.625 -10.242188 9.75 -10.707031 9.75 -11.28125 C 9.75 -11.820312 9.625 -12.25 9.375 -12.5625 C 9.125 -12.882812 8.789062 -13.113281 8.375 -13.25 C 7.957031 -13.382812 7.492188 -13.453125 6.984375 -13.453125 L 4.375 -13.453125 Z M 4.375 -2.09375 L 7.734375 -2.09375 C 8.253906 -2.09375 8.71875 -2.164062 9.125 -2.3125 C 9.539062 -2.46875 9.867188 -2.71875 10.109375 -3.0625 C 10.347656 -3.414062 10.46875 -3.890625 10.46875 -4.484375 C 10.46875 -5.054688 10.34375 -5.523438 10.09375 -5.890625 C 9.84375 -6.253906 9.507812 -6.523438 9.09375 -6.703125 C 8.6875 -6.890625 8.222656 -6.984375 7.703125 -6.984375 L 4.375 -6.984375 Z M 4.375 -2.09375 "/></g></g><g style="fill:#ffffff;fill-opacity:1;"><g transform="translate(15.690248, 21.167158)"><path style="stroke:none" d="M 3.6875 0.21875 C 2.957031 0.21875 2.4375 0.015625 2.125 -0.390625 C 1.820312 -0.796875 1.671875 -1.394531 1.671875 -2.1875 L 1.671875 -15.453125 L 3.796875 -15.453125 L 3.796875 -2.328125 C 3.796875 -2.273438 3.816406 -2.191406 3.859375 -2.078125 C 3.898438 -1.972656 3.96875 -1.875 4.0625 -1.78125 C 4.164062 -1.695312 4.3125 -1.65625 4.5 -1.65625 C 4.632812 -1.65625 4.785156 -1.660156 4.953125 -1.671875 C 5.117188 -1.691406 5.269531 -1.71875 5.40625 -1.75 L 5.40625 0 C 5.175781 0.0507812 4.90625 0.0976562 4.59375 0.140625 C 4.289062 0.191406 3.988281 0.21875 3.6875 0.21875 Z M 3.6875 0.21875 "/></g></g><g style="fill:#ffffff;fill-opacity:1;"><g transform="translate(21.642987, 21.167158)"><path style="stroke:none" d="M 4.46875 0.21875 C 3.757812 0.21875 3.117188 0.0820312 2.546875 -0.1875 C 1.984375 -0.457031 1.539062 -0.84375 1.21875 -1.34375 C 0.894531 -1.851562 0.734375 -2.46875 0.734375 -3.1875 C 0.734375 -3.945312 0.921875 -4.5625 1.296875 -5.03125 C 1.671875 -5.5 2.203125 -5.835938 2.890625 -6.046875 C 3.578125 -6.265625 4.390625 -6.375 5.328125 -6.375 L 7.984375 -6.375 C 7.984375 -6.957031 7.898438 -7.46875 7.734375 -7.90625 C 7.566406 -8.34375 7.300781 -8.6875 6.9375 -8.9375 C 6.582031 -9.1875 6.117188 -9.3125 5.546875 -9.3125 C 5.078125 -9.3125 4.660156 -9.234375 4.296875 -9.078125 C 3.941406 -8.921875 3.632812 -8.71875 3.375 -8.46875 C 3.113281 -8.226562 2.898438 -7.976562 2.734375 -7.71875 L 1.15625 -8.890625 C 1.65625 -9.585938 2.253906 -10.140625 2.953125 -10.546875 C 3.660156 -10.953125 4.503906 -11.15625 5.484375 -11.15625 C 6.453125 -11.15625 7.269531 -10.960938 7.9375 -10.578125 C 8.601562 -10.203125 9.109375 -9.679688 9.453125 -9.015625 C 9.804688 -8.347656 9.984375 -7.566406 9.984375 -6.671875 L 9.984375 0 L 8.21875 0 L 8.109375 -1.84375 C 7.679688 -1.09375 7.144531 -0.5625 6.5 -0.25 C 5.863281 0.0625 5.1875 0.21875 4.46875 0.21875 Z M 4.75 -1.578125 C 5.21875 -1.578125 5.648438 -1.671875 6.046875 -1.859375 C 6.441406 -2.046875 6.78125 -2.296875 7.0625 -2.609375 C 7.351562 -2.921875 7.578125 -3.265625 7.734375 -3.640625 C 7.890625 -4.023438 7.972656 -4.414062 7.984375 -4.8125 L 5.484375 -4.8125 C 4.617188 -4.8125 3.972656 -4.664062 3.546875 -4.375 C 3.117188 -4.09375 2.90625 -3.675781 2.90625 -3.125 C 2.90625 -2.613281 3.078125 -2.226562 3.421875 -1.96875 C 3.765625 -1.707031 4.207031 -1.578125 4.75 -1.578125 Z M 4.75 -1.578125 "/></g></g><g style="fill:#ffffff;fill-opacity:1;"><g transform="translate(33.045108, 21.167158)"><path style="stroke:none" d="M 5.828125 0.21875 C 4.992188 0.21875 4.265625 0.0625 3.640625 -0.25 C 3.015625 -0.5625 2.492188 -0.984375 2.078125 -1.515625 C 1.660156 -2.046875 1.347656 -2.648438 1.140625 -3.328125 C 0.929688 -4.015625 0.828125 -4.722656 0.828125 -5.453125 C 0.828125 -6.171875 0.925781 -6.867188 1.125 -7.546875 C 1.332031 -8.234375 1.644531 -8.847656 2.0625 -9.390625 C 2.476562 -9.929688 2.992188 -10.359375 3.609375 -10.671875 C 4.234375 -10.992188 4.96875 -11.15625 5.8125 -11.15625 C 6.84375 -11.15625 7.742188 -10.890625 8.515625 -10.359375 C 9.296875 -9.835938 9.882812 -9.085938 10.28125 -8.109375 L 8.28125 -7.28125 C 8.125 -7.882812 7.820312 -8.367188 7.375 -8.734375 C 6.9375 -9.097656 6.414062 -9.28125 5.8125 -9.28125 C 5.289062 -9.28125 4.847656 -9.164062 4.484375 -8.9375 C 4.128906 -8.71875 3.84375 -8.421875 3.625 -8.046875 C 3.40625 -7.671875 3.242188 -7.253906 3.140625 -6.796875 C 3.035156 -6.347656 2.984375 -5.898438 2.984375 -5.453125 C 2.984375 -4.992188 3.03125 -4.535156 3.125 -4.078125 C 3.226562 -3.628906 3.390625 -3.222656 3.609375 -2.859375 C 3.835938 -2.492188 4.128906 -2.195312 4.484375 -1.96875 C 4.835938 -1.75 5.28125 -1.640625 5.8125 -1.640625 C 6.414062 -1.640625 6.9375 -1.816406 7.375 -2.171875 C 7.820312 -2.535156 8.125 -3.007812 8.28125 -3.59375 L 10.15625 -2.84375 C 9.820312 -1.882812 9.273438 -1.132812 8.515625 -0.59375 C 7.765625 -0.0507812 6.867188 0.21875 5.828125 0.21875 Z M 5.828125 0.21875 "/></g></g><g style="fill:#ffffff;fill-opacity:1;"><g transform="translate(43.856332, 21.167158)"><path style="stroke:none" d="M 1.75 0 L 1.75 -15.453125 L 3.875 -15.453125 L 3.875 -5.671875 L 8.390625 -10.921875 L 11.109375 -10.921875 L 7.28125 -6.8125 L 11.703125 0 L 9.171875 0 L 5.90625 -5.453125 L 3.875 -3.203125 L 3.875 0 Z M 1.75 0 "/></g></g><g style="fill:#ffffff;fill-opacity:1;"><g transform="translate(55.685212, 21.167158)"><path style="stroke:none" d="M 7.171875 0.21875 C 6.484375 0.21875 5.859375 0.0859375 5.296875 -0.171875 C 4.734375 -0.429688 4.269531 -0.8125 3.90625 -1.3125 L 3.90625 0 L 1.75 0 L 1.75 -15.453125 L 3.90625 -15.453125 L 3.90625 -9.625 C 4.269531 -10.113281 4.726562 -10.488281 5.28125 -10.75 C 5.832031 -11.019531 6.453125 -11.15625 7.140625 -11.15625 C 7.878906 -11.15625 8.53125 -11.003906 9.09375 -10.703125 C 9.65625 -10.410156 10.128906 -10 10.515625 -9.46875 C 10.910156 -8.945312 11.207031 -8.34375 11.40625 -7.65625 C 11.601562 -6.96875 11.703125 -6.238281 11.703125 -5.46875 C 11.703125 -4.707031 11.601562 -3.984375 11.40625 -3.296875 C 11.207031 -2.609375 10.914062 -2 10.53125 -1.46875 C 10.144531 -0.9375 9.671875 -0.519531 9.109375 -0.21875 C 8.546875 0.0703125 7.898438 0.21875 7.171875 0.21875 Z M 6.625 -1.671875 C 7.132812 -1.671875 7.570312 -1.769531 7.9375 -1.96875 C 8.3125 -2.175781 8.617188 -2.457031 8.859375 -2.8125 C 9.097656 -3.164062 9.273438 -3.566406 9.390625 -4.015625 C 9.515625 -4.472656 9.578125 -4.957031 9.578125 -5.46875 C 9.578125 -5.96875 9.515625 -6.445312 9.390625 -6.90625 C 9.273438 -7.375 9.097656 -7.785156 8.859375 -8.140625 C 8.617188 -8.492188 8.3125 -8.769531 7.9375 -8.96875 C 7.570312 -9.175781 7.132812 -9.28125 6.625 -9.28125 C 6.125 -9.28125 5.6875 -9.175781 5.3125 -8.96875 C 4.945312 -8.769531 4.644531 -8.492188 4.40625 -8.140625 C 4.175781 -7.785156 4 -7.378906 3.875 -6.921875 C 3.757812 -6.460938 3.703125 -5.976562 3.703125 -5.46875 C 3.703125 -4.957031 3.757812 -4.472656 3.875 -4.015625 C 4 -3.566406 4.175781 -3.164062 4.40625 -2.8125 C 4.644531 -2.457031 4.945312 -2.175781 5.3125 -1.96875 C 5.6875 -1.769531 6.125 -1.671875 6.625 -1.671875 Z M 6.625 -1.671875 "/></g></g><g style="fill:#ffffff;fill-opacity:1;"><g transform="translate(68.269127, 21.167158)"><path style="stroke:none" d="M 1.734375 0 L 1.734375 -10.921875 L 3.8125 -10.921875 L 3.8125 -9.03125 C 3.976562 -9.476562 4.21875 -9.859375 4.53125 -10.171875 C 4.851562 -10.492188 5.21875 -10.738281 5.625 -10.90625 C 6.039062 -11.070312 6.460938 -11.15625 6.890625 -11.15625 C 7.265625 -11.15625 7.613281 -11.097656 7.9375 -10.984375 C 8.257812 -10.867188 8.535156 -10.703125 8.765625 -10.484375 L 7.828125 -8.703125 C 7.472656 -8.972656 7.050781 -9.109375 6.5625 -9.109375 C 6.039062 -9.109375 5.566406 -8.957031 5.140625 -8.65625 C 4.722656 -8.363281 4.390625 -7.914062 4.140625 -7.3125 C 3.898438 -6.71875 3.78125 -5.96875 3.78125 -5.0625 L 3.78125 0 Z M 1.734375 0 "/></g></g><g style="fill:#ffffff;fill-opacity:1;"><g transform="translate(77.077868, 21.167158)"><path style="stroke:none" d="M 1.640625 -13.1875 L 1.640625 -15.453125 L 3.921875 -15.453125 L 3.921875 -13.1875 Z M 1.734375 0 L 1.734375 -10.921875 L 3.84375 -10.921875 L 3.84375 0 Z M 1.734375 0 "/></g></g><g style="fill:#ffffff;fill-opacity:1;"><g transform="translate(82.647618, 21.167158)"><path style="stroke:none" d="M 8.6875 -15.453125 L 10.8125 -15.453125 L 10.8125 0 L 8.8125 0 L 8.734375 -1.375 C 8.367188 -0.863281 7.90625 -0.46875 7.34375 -0.1875 C 6.78125 0.0820312 6.140625 0.21875 5.421875 0.21875 C 4.691406 0.21875 4.046875 0.0703125 3.484375 -0.21875 C 2.921875 -0.519531 2.445312 -0.929688 2.0625 -1.453125 C 1.675781 -1.984375 1.382812 -2.59375 1.1875 -3.28125 C 0.988281 -3.96875 0.890625 -4.695312 0.890625 -5.46875 C 0.890625 -6.238281 0.988281 -6.960938 1.1875 -7.640625 C 1.382812 -8.328125 1.675781 -8.9375 2.0625 -9.46875 C 2.445312 -10 2.921875 -10.410156 3.484375 -10.703125 C 4.046875 -11.003906 4.6875 -11.15625 5.40625 -11.15625 C 6.09375 -11.15625 6.71875 -11.023438 7.28125 -10.765625 C 7.84375 -10.503906 8.3125 -10.125 8.6875 -9.625 Z M 5.96875 -1.640625 C 6.476562 -1.640625 6.914062 -1.738281 7.28125 -1.9375 C 7.644531 -2.144531 7.941406 -2.425781 8.171875 -2.78125 C 8.410156 -3.132812 8.582031 -3.539062 8.6875 -4 C 8.800781 -4.457031 8.859375 -4.945312 8.859375 -5.46875 C 8.859375 -5.976562 8.800781 -6.460938 8.6875 -6.921875 C 8.582031 -7.378906 8.410156 -7.785156 8.171875 -8.140625 C 7.941406 -8.492188 7.644531 -8.769531 7.28125 -8.96875 C 6.914062 -9.175781 6.476562 -9.28125 5.96875 -9.28125 C 5.457031 -9.28125 5.015625 -9.175781 4.640625 -8.96875 C 4.273438 -8.769531 3.972656 -8.492188 3.734375 -8.140625 C 3.492188 -7.785156 3.316406 -7.375 3.203125 -6.90625 C 3.097656 -6.445312 3.046875 -5.96875 3.046875 -5.46875 C 3.046875 -4.957031 3.097656 -4.472656 3.203125 -4.015625 C 3.316406 -3.554688 3.492188 -3.144531 3.734375 -2.78125 C 3.972656 -2.425781 4.273438 -2.144531 4.640625 -1.9375 C 5.015625 -1.738281 5.457031 -1.640625 5.96875 -1.640625 Z M 5.96875 -1.640625 "/></g></g><g style="fill:#ffffff;fill-opacity:1;"><g transform="translate(95.220595, 21.167158)"><path style="stroke:none" d="M 6.15625 -1.546875 C 6.582031 -1.492188 7.003906 -1.425781 7.421875 -1.34375 C 7.835938 -1.257812 8.234375 -1.148438 8.609375 -1.015625 C 8.984375 -0.890625 9.316406 -0.71875 9.609375 -0.5 C 9.898438 -0.28125 10.125 0 10.28125 0.34375 C 10.445312 0.6875 10.53125 1.109375 10.53125 1.609375 C 10.53125 2.203125 10.410156 2.710938 10.171875 3.140625 C 9.929688 3.578125 9.597656 3.9375 9.171875 4.21875 C 8.753906 4.507812 8.265625 4.726562 7.703125 4.875 C 7.148438 5.019531 6.566406 5.09375 5.953125 5.09375 C 4.941406 5.09375 4.070312 4.925781 3.34375 4.59375 C 2.613281 4.257812 2.046875 3.800781 1.640625 3.21875 C 1.242188 2.644531 1.046875 2.003906 1.046875 1.296875 C 1.046875 1.191406 1.050781 1.101562 1.0625 1.03125 C 1.070312 0.96875 1.078125 0.90625 1.078125 0.84375 L 2.46875 -0.484375 C 2.101562 -0.691406 1.800781 -0.972656 1.5625 -1.328125 C 1.332031 -1.679688 1.21875 -2.132812 1.21875 -2.6875 C 1.21875 -3.09375 1.289062 -3.457031 1.4375 -3.78125 C 1.582031 -4.113281 1.8125 -4.414062 2.125 -4.6875 C 1.832031 -5.03125 1.601562 -5.414062 1.4375 -5.84375 C 1.28125 -6.269531 1.203125 -6.722656 1.203125 -7.203125 C 1.203125 -7.785156 1.3125 -8.316406 1.53125 -8.796875 C 1.757812 -9.285156 2.066406 -9.703125 2.453125 -10.046875 C 2.847656 -10.390625 3.300781 -10.648438 3.8125 -10.828125 C 4.332031 -11.015625 4.890625 -11.109375 5.484375 -11.109375 C 6.003906 -11.109375 6.492188 -11.035156 6.953125 -10.890625 C 7.421875 -10.742188 7.835938 -10.535156 8.203125 -10.265625 L 9.84375 -11.71875 L 11 -10.296875 L 9.3125 -8.953125 C 9.601562 -8.410156 9.75 -7.800781 9.75 -7.125 C 9.75 -6.519531 9.640625 -5.976562 9.421875 -5.5 C 9.203125 -5.03125 8.898438 -4.628906 8.515625 -4.296875 C 8.128906 -3.960938 7.679688 -3.707031 7.171875 -3.53125 C 6.660156 -3.351562 6.113281 -3.265625 5.53125 -3.265625 C 4.769531 -3.265625 4.078125 -3.410156 3.453125 -3.703125 C 3.179688 -3.515625 3.046875 -3.273438 3.046875 -2.984375 C 3.046875 -2.640625 3.179688 -2.378906 3.453125 -2.203125 C 3.734375 -2.023438 4.109375 -1.890625 4.578125 -1.796875 C 5.046875 -1.710938 5.570312 -1.628906 6.15625 -1.546875 Z M 5.515625 -9.46875 C 5.066406 -9.46875 4.679688 -9.363281 4.359375 -9.15625 C 4.046875 -8.945312 3.800781 -8.671875 3.625 -8.328125 C 3.457031 -7.992188 3.375 -7.617188 3.375 -7.203125 C 3.375 -6.546875 3.5625 -6.015625 3.9375 -5.609375 C 4.3125 -5.203125 4.835938 -5 5.515625 -5 C 6.179688 -5 6.703125 -5.203125 7.078125 -5.609375 C 7.453125 -6.015625 7.640625 -6.546875 7.640625 -7.203125 C 7.640625 -7.628906 7.554688 -8.007812 7.390625 -8.34375 C 7.222656 -8.6875 6.976562 -8.957031 6.65625 -9.15625 C 6.34375 -9.363281 5.960938 -9.46875 5.515625 -9.46875 Z M 6.03125 3.34375 C 6.5 3.34375 6.925781 3.285156 7.3125 3.171875 C 7.695312 3.054688 8.003906 2.882812 8.234375 2.65625 C 8.460938 2.425781 8.578125 2.144531 8.578125 1.8125 C 8.578125 1.539062 8.5 1.316406 8.34375 1.140625 C 8.1875 0.972656 7.96875 0.84375 7.6875 0.75 C 7.414062 0.664062 7.085938 0.59375 6.703125 0.53125 C 6.328125 0.476562 5.910156 0.414062 5.453125 0.34375 C 5.191406 0.3125 4.925781 0.269531 4.65625 0.21875 C 4.382812 0.175781 4.109375 0.125 3.828125 0.0625 L 2.90625 1.328125 C 2.925781 1.710938 3.066406 2.054688 3.328125 2.359375 C 3.585938 2.660156 3.945312 2.898438 4.40625 3.078125 C 4.863281 3.253906 5.40625 3.34375 6.03125 3.34375 Z M 6.03125 3.34375 "/></g></g><g style="fill:#ffffff;fill-opacity:1;"><g transform="translate(106.557061, 21.167158)"><path style="stroke:none" d="M 6.03125 0.1875 C 5.144531 0.1875 4.375 0.0351562 3.71875 -0.265625 C 3.0625 -0.566406 2.515625 -0.976562 2.078125 -1.5 C 1.648438 -2.03125 1.332031 -2.628906 1.125 -3.296875 C 0.914062 -3.972656 0.8125 -4.679688 0.8125 -5.421875 C 0.8125 -6.140625 0.910156 -6.835938 1.109375 -7.515625 C 1.316406 -8.191406 1.628906 -8.800781 2.046875 -9.34375 C 2.460938 -9.882812 2.984375 -10.3125 3.609375 -10.625 C 4.242188 -10.945312 4.988281 -11.109375 5.84375 -11.109375 C 6.582031 -11.109375 7.222656 -11.003906 7.765625 -10.796875 C 8.304688 -10.585938 8.757812 -10.296875 9.125 -9.921875 C 9.5 -9.554688 9.800781 -9.140625 10.03125 -8.671875 C 10.257812 -8.203125 10.421875 -7.710938 10.515625 -7.203125 C 10.617188 -6.691406 10.671875 -6.191406 10.671875 -5.703125 C 10.671875 -5.515625 10.664062 -5.332031 10.65625 -5.15625 C 10.644531 -4.988281 10.628906 -4.859375 10.609375 -4.765625 L 3.046875 -4.765625 C 3.085938 -4.203125 3.21875 -3.6875 3.4375 -3.21875 C 3.664062 -2.757812 3.988281 -2.390625 4.40625 -2.109375 C 4.832031 -1.835938 5.375 -1.703125 6.03125 -1.703125 C 6.59375 -1.703125 7.109375 -1.785156 7.578125 -1.953125 C 8.046875 -2.117188 8.484375 -2.425781 8.890625 -2.875 L 10.34375 -1.640625 C 9.75 -1.015625 9.101562 -0.550781 8.40625 -0.25 C 7.707031 0.0390625 6.914062 0.1875 6.03125 0.1875 Z M 3.046875 -6.375 L 8.625 -6.375 C 8.59375 -6.925781 8.472656 -7.425781 8.265625 -7.875 C 8.054688 -8.332031 7.753906 -8.691406 7.359375 -8.953125 C 6.960938 -9.222656 6.453125 -9.359375 5.828125 -9.359375 C 5.234375 -9.359375 4.738281 -9.222656 4.34375 -8.953125 C 3.957031 -8.679688 3.65625 -8.316406 3.4375 -7.859375 C 3.226562 -7.410156 3.097656 -6.914062 3.046875 -6.375 Z M 3.046875 -6.375 "/></g></g></g></svg>